<mxfile host="app.diagrams.net" modified="2024-02-18T05:50:27.329Z" agent="Mozilla/5.0 (Windows NT 10.0; Win64; x64) AppleWebKit/537.36 (KHTML, like Gecko) Chrome/121.0.0.0 Safari/537.36" version="23.1.4" etag="v1oaEKtaJDq7Vd7ODvUV" type="github">
  <diagram name="Page-1" id="knzAuW0coJMuKpMu3PRs">
    <mxGraphModel>
      <root>
        <mxCell id="0" />
        <mxCell id="1" parent="0" />
      </root>
    </mxGraphModel>
  </diagram>
</mxfile>
